<svg id="Слой_1" data-name="Слой 1" xmlns="http://www.w3.org/2000/svg" viewBox="0 0 299.33 200"><defs><style>.cls-1{fill:#e52421;}.cls-2{fill:#fff;}</style></defs><title>act</title><polygon class="cls-1" points="57.29 85.5 22.53 57.25 70.17 57.25 59.87 24.6 127.46 52.38 142.26 18.76 167.37 46.53 207.92 0 218.22 42.75 276.16 27.53 247.19 62.61 299.33 81.12 250.41 106.94 285.17 136.18 234.32 129.35 251.05 172.72 179.6 134.23 148.06 200 109.43 141.05 61.8 161.51 62.44 116.69 0 108.4 57.29 85.5"/><path class="cls-2" d="M118.85,76l5,1.59A11.26,11.26,0,0,1,120,83.85a12.08,12.08,0,0,1-15.21-1.45q-3.29-3.49-3.29-9.54,0-6.4,3.31-9.94a11.33,11.33,0,0,1,8.69-3.54,10.66,10.66,0,0,1,7.64,2.78,10.11,10.11,0,0,1,2.62,4.72l-5.12,1.22a5.3,5.3,0,0,0-5.4-4.3,5.83,5.83,0,0,0-4.63,2q-1.78,2-1.78,6.63,0,4.86,1.75,6.93a5.68,5.68,0,0,0,4.55,2.06,5.19,5.19,0,0,0,3.55-1.31A7.62,7.62,0,0,0,118.85,76Z" transform="translate(-0.67)"/><path class="cls-2" d="M125.24,59.81H131l6,13.31,5.11-13.31h5.4l-8.66,19.48A19,19,0,0,1,136,84.11a4.84,4.84,0,0,1-3.8,1.65,16.83,16.83,0,0,1-3.59-.3V81.62q1.1.07,2,.07a4,4,0,0,0,2.58-.66,6.53,6.53,0,0,0,1.5-2.82Z" transform="translate(-0.67)"/><path class="cls-2" d="M150.19,59.81h20.39V85.45h-5.18V64.11h-10V85.45h-5.18Z" transform="translate(-0.67)"/><path class="cls-2" d="M175.87,85.45V59.81h19v4.34H181v5.68h12.87v4.32H181v7h14.32v4.32Z" transform="translate(-0.67)"/><path class="cls-2" d="M199.76,85.45V59.81h8.31a30.13,30.13,0,0,1,6.16.38,6.72,6.72,0,0,1,3.69,2.51,8,8,0,0,1,1.49,5,8.37,8.37,0,0,1-.86,4,7,7,0,0,1-2.18,2.53,7.5,7.5,0,0,1-2.68,1.22,29.55,29.55,0,0,1-5.37.37h-3.38v9.67Zm5.18-21.3v7.28h2.83a13.39,13.39,0,0,0,4.09-.4,3.4,3.4,0,0,0,1.62-1.26,3.45,3.45,0,0,0,.59-2,3.31,3.31,0,0,0-.82-2.31,3.58,3.58,0,0,0-2.08-1.14,24.88,24.88,0,0,0-3.73-.17Z" transform="translate(-0.67)"/><path class="cls-2" d="M113.4,94.37h4.92v20.26h9.53V94.37h4.92v20.26h2V124h-4.09v-5.31H113.4Z" transform="translate(-0.67)"/><path class="cls-2" d="M138.17,118.72V94.37h18.06v4.12H143.08v5.4h12.23V108H143.08v6.63h13.6v4.1Z" transform="translate(-0.67)"/><path class="cls-2" d="M160.87,118.72V94.37h4.92V104h9.63V94.37h4.92v24.35h-4.92V108.07h-9.63v10.65Z" transform="translate(-0.67)"/><path class="cls-2" d="M207.38,118.72H202l-2.13-5.53h-9.73l-2,5.53h-5.22l9.48-24.35h5.2Zm-9.05-9.63L195,100l-3.29,9Z" transform="translate(-0.67)"/></svg>